{"asset":{"version":"2.0","generator":"babylon.js glTF exporter for 3ds max 2018 v1.2.24","copyright":"2017 (c) BabylonJS"},"extensionsUsed":["KHR_lights"],"scene":0,"scenes":[{"nodes":[0,1],"extensions":{"KHR_lights":{"light":0}}}],"nodes":[{"mesh":0,"translation":[0.0,0.0,0.0],"rotation":[-5.3385083E-08,-0.7071068,0.7071068,-5.3385083E-08],"scale":[1.0,1.0,1.0],"name":"JeepSpoiler00C02"},{"translation":[0.0,0.0,0.0],"rotation":[0.0,0.0,0.0,1.0],"scale":[1.0,1.0,1.0],"name":"Default light"}],"meshes":[{"primitives":[{"attributes":{"POSITION":1,"TANGENT":2,"NORMAL":3,"TEXCOORD_0":4},"indices":0,"mode":4,"material":0}],"name":"JeepSpoiler00C02"}],"accessors":[{"bufferView":0,"componentType":5123,"count":936,"type":"SCALAR","name":"accessorIndices"},{"bufferView":1,"componentType":5126,"count":936,"max":[0.04430009,0.119985715,-0.102947555],"min":[-0.0443001352,0.103223585,-0.189085066],"type":"VEC3","name":"accessorPositions"},{"bufferView":2,"componentType":5126,"count":936,"type":"VEC4","name":"accessorTangents"},{"bufferView":1,"byteOffset":11232,"componentType":5126,"count":936,"type":"VEC3","name":"accessorNormals"},{"bufferView":3,"componentType":5126,"count":936,"type":"VEC2","name":"accessorUVs"}],"bufferViews":[{"buffer":0,"byteLength":1872,"name":"bufferViewScalar"},{"buffer":0,"byteOffset":1872,"byteLength":22464,"byteStride":12,"name":"bufferViewFloatVec3"},{"buffer":0,"byteOffset":24336,"byteLength":14976,"byteStride":16,"name":"bufferViewFloatVec4"},{"buffer":0,"byteOffset":39312,"byteLength":7488,"byteStride":8,"name":"bufferViewFloatVec2"}],"buffers":[{"uri":"JeepSpoiler00C02.bin","byteLength":46800}],"materials":[{"pbrMetallicRoughness":{"baseColorFactor":[1.0,1.0,1.0,1.0],"baseColorTexture":{"index":0,"texCoord":0},"metallicFactor":0.0,"roughnessFactor":0.9},"emissiveFactor":[0.0,0.0,0.0],"alphaMode":"OPAQUE","name":"matJeep00"}],"textures":[{"sampler":0,"source":0,"name":"matJeep00_baseColor.jpg"}],"images":[{"uri":"matJeep00_baseColor.jpg"}],"samplers":[{"magFilter":9729,"minFilter":9987,"wrapS":10497,"wrapT":10497}],"extensions":{"KHR_lights":{"lights":[{"color":[1.0,1.0,1.0],"intensity":1.0,"type":"ambient"}]}}}