{"asset":{"version":"2.0","generator":"babylon.js glTF exporter for 3ds max 2018 v1.2.24","copyright":"2017 (c) BabylonJS"},"extensionsUsed":["KHR_lights"],"scene":0,"scenes":[{"nodes":[0,1],"extensions":{"KHR_lights":{"light":0}}}],"nodes":[{"mesh":0,"translation":[0.0,0.0,0.0],"rotation":[-5.3385083E-08,-0.7071068,0.7071068,-5.3385083E-08],"scale":[1.0,1.0,1.0],"name":"JeepWheel02C05"},{"translation":[0.0,0.0,0.0],"rotation":[0.0,0.0,0.0,1.0],"scale":[1.0,1.0,1.0],"name":"Default light"}],"meshes":[{"primitives":[{"attributes":{"POSITION":1,"TANGENT":2,"NORMAL":3,"TEXCOORD_0":4},"indices":0,"mode":4,"material":0}],"name":"JeepWheel02C05"}],"accessors":[{"bufferView":0,"componentType":5123,"count":4056,"type":"SCALAR","name":"accessorIndices"},{"bufferView":1,"componentType":5126,"count":4056,"max":[0.1038475,0.126211956,-0.001792144],"min":[-0.103847496,-0.146291092,-0.09618598],"type":"VEC3","name":"accessorPositions"},{"bufferView":2,"componentType":5126,"count":4056,"type":"VEC4","name":"accessorTangents"},{"bufferView":1,"byteOffset":48672,"componentType":5126,"count":4056,"type":"VEC3","name":"accessorNormals"},{"bufferView":3,"componentType":5126,"count":4056,"type":"VEC2","name":"accessorUVs"}],"bufferViews":[{"buffer":0,"byteLength":8112,"name":"bufferViewScalar"},{"buffer":0,"byteOffset":8112,"byteLength":97344,"byteStride":12,"name":"bufferViewFloatVec3"},{"buffer":0,"byteOffset":105456,"byteLength":64896,"byteStride":16,"name":"bufferViewFloatVec4"},{"buffer":0,"byteOffset":170352,"byteLength":32448,"byteStride":8,"name":"bufferViewFloatVec2"}],"buffers":[{"uri":"JeepWheel02C05.bin","byteLength":202800}],"materials":[{"pbrMetallicRoughness":{"baseColorFactor":[1.0,1.0,1.0,1.0],"baseColorTexture":{"index":0,"texCoord":0},"metallicFactor":0.0,"roughnessFactor":0.9},"emissiveFactor":[0.0,0.0,0.0],"alphaMode":"OPAQUE","name":"24 - Default"}],"textures":[{"sampler":0,"source":0,"name":"24 - Default_baseColor.jpg"}],"images":[{"uri":"24 - Default_baseColor.jpg"}],"samplers":[{"magFilter":9729,"minFilter":9987,"wrapS":10497,"wrapT":10497}],"extensions":{"KHR_lights":{"lights":[{"color":[1.0,1.0,1.0],"intensity":1.0,"type":"ambient"}]}}}