{"asset":{"version":"2.0","generator":"babylon.js glTF exporter for 3ds max 2018 v1.2.24","copyright":"2017 (c) BabylonJS"},"extensionsUsed":["KHR_lights"],"scene":0,"scenes":[{"nodes":[0,1,2],"extensions":{"KHR_lights":{"light":0}}}],"nodes":[{"translation":[-0.0109100342,0.04554963,-0.010617435],"rotation":[0.528723538,0.269907,-0.182058245,0.7838728],"scale":[0.9999998,1.00000024,0.9999999],"name":"PhysCamera001.Target"},{"mesh":0,"translation":[0.0,0.0,0.0],"rotation":[-3.09086268E-08,-0.7071068,0.7071068,-3.09086232E-08],"scale":[1.0,1.0,1.0],"name":"LuxCasing00C01"},{"translation":[0.0,0.0,0.0],"rotation":[0.0,0.0,0.0,1.0],"scale":[1.0,1.0,1.0],"name":"Default light"}],"meshes":[{"primitives":[{"attributes":{"POSITION":1,"NORMAL":2,"TEXCOORD_0":3},"indices":0,"mode":4,"material":0}],"name":"LuxCasing00C01"}],"accessors":[{"bufferView":0,"componentType":5123,"count":3126,"type":"SCALAR","name":"accessorIndices"},{"bufferView":1,"componentType":5126,"count":3126,"max":[0.106464237,0.150733143,0.0],"min":[-0.106464088,-0.214634538,-0.1354364],"type":"VEC3","name":"accessorPositions"},{"bufferView":1,"byteOffset":37512,"componentType":5126,"count":3126,"type":"VEC3","name":"accessorNormals"},{"bufferView":2,"componentType":5126,"count":3126,"type":"VEC2","name":"accessorUVs"}],"bufferViews":[{"buffer":0,"byteLength":6252,"name":"bufferViewScalar"},{"buffer":0,"byteOffset":6252,"byteLength":75024,"byteStride":12,"name":"bufferViewFloatVec3"},{"buffer":0,"byteOffset":81276,"byteLength":25008,"byteStride":8,"name":"bufferViewFloatVec2"}],"buffers":[{"uri":"LuxCasing00C01.bin","byteLength":106284}],"materials":[{"pbrMetallicRoughness":{"baseColorFactor":[1.0,1.0,1.0,1.0],"baseColorTexture":{"index":1,"texCoord":0},"metallicFactor":0.0,"roughnessFactor":1.0},"emissiveTexture":{"index":0,"texCoord":0},"emissiveFactor":[1.0,1.0,1.0],"alphaMode":"OPAQUE","name":"matLux00all"}],"textures":[{"sampler":0,"source":0,"name":"txLux00all_emissive.png"},{"sampler":1,"source":1,"name":"txLux00all255_baseColor.jpg"}],"images":[{"uri":"txLux00all_emissive.png"},{"uri":"txLux00all255_baseColor.jpg"}],"samplers":[{"magFilter":9729,"minFilter":9987,"wrapS":10497,"wrapT":10497},{"magFilter":9729,"minFilter":9987,"wrapS":10497,"wrapT":10497}],"extensions":{"KHR_lights":{"lights":[{"color":[1.0,1.0,1.0],"intensity":1.0,"type":"ambient"}]}}}