{"asset":{"version":"2.0","generator":"babylon.js glTF exporter for 3ds max 2018 v1.2.24","copyright":"2017 (c) BabylonJS"},"extensionsUsed":["KHR_lights"],"scene":0,"scenes":[{"nodes":[0,1],"extensions":{"KHR_lights":{"light":0}}}],"nodes":[{"mesh":0,"translation":[0.0,0.0,0.0],"rotation":[-3.09086268E-08,-0.7071068,0.7071068,-3.09086232E-08],"scale":[1.0,1.0,1.0],"name":"MuscleBumper00C03"},{"translation":[0.0,0.0,0.0],"rotation":[0.0,0.0,0.0,1.0],"scale":[1.0,1.0,1.0],"name":"Default light"}],"meshes":[{"primitives":[{"attributes":{"POSITION":1,"NORMAL":2,"TEXCOORD_0":3},"indices":0,"mode":4,"material":0}],"name":"MuscleBumper00C03"}],"accessors":[{"bufferView":0,"componentType":5123,"count":576,"type":"SCALAR","name":"accessorIndices"},{"bufferView":1,"componentType":5126,"count":576,"max":[0.09638135,0.0,0.0],"min":[-0.09638123,-0.2139589,-0.06381565],"type":"VEC3","name":"accessorPositions"},{"bufferView":1,"byteOffset":6912,"componentType":5126,"count":576,"type":"VEC3","name":"accessorNormals"},{"bufferView":2,"componentType":5126,"count":576,"type":"VEC2","name":"accessorUVs"}],"bufferViews":[{"buffer":0,"byteLength":1152,"name":"bufferViewScalar"},{"buffer":0,"byteOffset":1152,"byteLength":13824,"byteStride":12,"name":"bufferViewFloatVec3"},{"buffer":0,"byteOffset":14976,"byteLength":4608,"byteStride":8,"name":"bufferViewFloatVec2"}],"buffers":[{"uri":"MuscleBumper00C03.bin","byteLength":19584}],"materials":[{"pbrMetallicRoughness":{"baseColorFactor":[1.0,1.0,1.0,1.0],"baseColorTexture":{"index":1,"texCoord":0},"metallicFactor":0.0,"roughnessFactor":1.0},"emissiveTexture":{"index":0,"texCoord":0},"emissiveFactor":[1.0,1.0,1.0],"alphaMode":"OPAQUE","name":"matMuscle00all"}],"textures":[{"sampler":0,"source":0,"name":"txMuscle00all_emissive.png"},{"sampler":1,"source":1,"name":"txMuscle00all255_baseColor.jpg"}],"images":[{"uri":"txMuscle00all_emissive.png"},{"uri":"txMuscle00all255_baseColor.jpg"}],"samplers":[{"magFilter":9729,"minFilter":9987,"wrapS":10497,"wrapT":10497},{"magFilter":9729,"minFilter":9987,"wrapS":10497,"wrapT":10497}],"extensions":{"KHR_lights":{"lights":[{"color":[1.0,1.0,1.0],"intensity":1.0,"type":"ambient"}]}}}