{"asset":{"version":"2.0","generator":"babylon.js glTF exporter for 3ds max 2018 v1.2.24","copyright":"2017 (c) BabylonJS"},"extensionsUsed":["KHR_lights"],"scene":0,"scenes":[{"nodes":[0,1],"extensions":{"KHR_lights":{"light":0}}}],"nodes":[{"mesh":0,"translation":[0.0,0.0,0.0],"rotation":[-5.3385083E-08,-0.7071068,0.7071068,-5.3385083E-08],"scale":[1.0,1.0,1.0],"name":"TankSpoiler02R01"},{"translation":[0.0,0.0,0.0],"rotation":[0.0,0.0,0.0,1.0],"scale":[1.0,1.0,1.0],"name":"Default light"}],"meshes":[{"primitives":[{"attributes":{"POSITION":1,"TANGENT":2,"NORMAL":3,"TEXCOORD_0":4},"indices":0,"mode":4,"material":0}],"name":"TankSpoiler02R01"}],"accessors":[{"bufferView":0,"componentType":5123,"count":546,"type":"SCALAR","name":"accessorIndices"},{"bufferView":1,"componentType":5126,"count":546,"max":[0.069222264,0.131825089,-0.09626387],"min":[-0.06922225,0.0189355277,-0.180805013],"type":"VEC3","name":"accessorPositions"},{"bufferView":2,"componentType":5126,"count":546,"type":"VEC4","name":"accessorTangents"},{"bufferView":1,"byteOffset":6552,"componentType":5126,"count":546,"type":"VEC3","name":"accessorNormals"},{"bufferView":3,"componentType":5126,"count":546,"type":"VEC2","name":"accessorUVs"}],"bufferViews":[{"buffer":0,"byteLength":1092,"name":"bufferViewScalar"},{"buffer":0,"byteOffset":1092,"byteLength":13104,"byteStride":12,"name":"bufferViewFloatVec3"},{"buffer":0,"byteOffset":14196,"byteLength":8736,"byteStride":16,"name":"bufferViewFloatVec4"},{"buffer":0,"byteOffset":22932,"byteLength":4368,"byteStride":8,"name":"bufferViewFloatVec2"}],"buffers":[{"uri":"TankSpoiler02R01.bin","byteLength":27300}],"materials":[{"pbrMetallicRoughness":{"baseColorFactor":[1.0,1.0,1.0,1.0],"baseColorTexture":{"index":0,"texCoord":0},"metallicFactor":0.0,"roughnessFactor":0.9},"emissiveFactor":[0.0,0.0,0.0],"alphaMode":"OPAQUE","name":"13 - Default"}],"textures":[{"sampler":0,"source":0,"name":"13 - Default_baseColor.jpg"}],"images":[{"uri":"13 - Default_baseColor.jpg"}],"samplers":[{"magFilter":9729,"minFilter":9987,"wrapS":10497,"wrapT":10497}],"extensions":{"KHR_lights":{"lights":[{"color":[1.0,1.0,1.0],"intensity":1.0,"type":"ambient"}]}}}